<svg id="freepik--character-2--inject-92" xmlns="http://www.w3.org/2000/svg" width="141.236" height="291.229" viewBox="0 0 141.236 291.229">
    <defs>
        <style>
            .cls-1{fill:#263238}.cls-2{fill:#ffb573}.cls-3{fill:#ff81ae}.cls-4,.cls-5{opacity:.2}.cls-6{opacity:.3}
        </style>
    </defs>
    <path id="Path_12" data-name="Path 12" class="cls-1" d="M303 131.33c-6.75 4.11-9.83 11.59-15.5 19.34s-8.5 7.62-8.5 7.62 15.21 13.21 35.94 9.29 17.94-26 7.79-32.5c-1.52-6.16-13.18-7.75-19.73-3.75z" transform="translate(-248.08 -125.011)"/>
    <path id="Path_13" data-name="Path 13" class="cls-2" d="M292.33 184.17c-.1 1.38-.22 2.56-.39 3.82s-.34 2.47-.54 3.69c-.41 2.46-1 4.88-1.54 7.3a79.762 79.762 0 0 1-4.89 14.2l-.4.86-.19.43-.26.51a18.806 18.806 0 0 1-1.12 1.92 27.6 27.6 0 0 1-2.59 3.17 52.933 52.933 0 0 1-5.64 5.14 89.809 89.809 0 0 1-12.32 8.13l-2.3-3.45c1.77-1.5 3.58-3.06 5.31-4.63s3.45-3.17 5.06-4.81a59.265 59.265 0 0 0 4.51-5 24.744 24.744 0 0 0 1.75-2.55c.13-.21.24-.41.34-.61a5 5 0 0 0 .27-.59l.13-.3.15-.4.31-.79c.82-2.1 1.51-4.27 2.17-6.46s1.2-4.41 1.69-6.66.9-4.51 1.28-6.78.68-4.61.91-6.73z" transform="translate(-248.08 -125.011)"/>
    <path id="Path_14" data-name="Path 14" class="cls-3" d="M286.64 174.16c-3.38.85-5.74 14.74-5.74 14.74l9.3 6.32s8.91-14 6.32-17.71c-2.7-3.87-4.96-4.61-9.88-3.35z" transform="translate(-248.08 -125.011)"/>
    <path id="Path_15" data-name="Path 15" class="cls-4" d="m286.94 177.26-2.59 13.99 5.22 3.55z" transform="translate(-248.08 -125.011)"/>
    <path id="Path_16" data-name="Path 16" class="cls-2" d="m258.32 229.75-6.32 2.46 7.13 4.3s4.55-2.63 4.44-6l-.71-.4a5.31 5.31 0 0 0-4.54-.36z" transform="translate(-248.08 -125.011)"/>
    <path id="Path_17" data-name="Path 17" class="cls-2" d="m248.08 236.87 5.37 4.46 5.69-4.82-7.13-4.3z" transform="translate(-248.08 -125.011)"/>
    <path id="Path_18" data-name="Path 18" class="cls-2" d="M312.93 407.88h-8.18l-3.36-18.96h8.19z" transform="translate(-248.08 -125.011)"/>
    <path id="Path_19" data-name="Path 19" class="cls-1" d="M304.11 406.93h9.2a.64.64 0 0 1 .65.56l1.05 7.28a1.31 1.31 0 0 1-1.31 1.45c-3.21-.05-4.75-.24-8.8-.24-2.49 0-9.63.26-13.07.26s-3.62-3.4-2.19-3.71c6.42-1.38 10.94-3.28 13.1-5.1a2.18 2.18 0 0 1 1.37-.5z" transform="translate(-248.08 -125.011)"/>
    <g id="Group_1" data-name="Group 1" class="cls-5" transform="translate(53.31 263.909)">
        <path id="Path_20" data-name="Path 20" d="m301.39 388.92 1.73 9.78h8.19l-1.72-9.78z" transform="translate(-301.39 -388.92)"/>
    </g>
    <path id="Path_21" data-name="Path 21" class="cls-3" d="M286.64 174.16s-3.9 1.37 3.91 49.41h33.25c-.56-13.53-.68-21.89 5.79-49.66a95.371 95.371 0 0 0-14-1.85 105.437 105.437 0 0 0-15.09 0c-6.5.59-13.86 2.1-13.86 2.1z" transform="translate(-248.08 -125.011)"/>
    <path id="Path_22" data-name="Path 22" class="cls-2" d="M314.08 155.06c-.95 4.85-1.9 13.76 1.49 17 0 0-1.32 4.93-10.35 4.93-9.93 0-4.74-4.93-4.74-4.93 5.41-1.3 5.27-5.32 4.33-9.09z" transform="translate(-248.08 -125.011)"/>
    <path id="Path_23" data-name="Path 23" class="cls-2" d="M315.57 172.06a105.577 105.577 0 0 0-15.1 0l-1 .1c-1.21 2.28-1.51 5.79 1.37 11 0 0 13.25-5.34 16.7-10.92a18.018 18.018 0 0 0-1.97-.18z" transform="translate(-248.08 -125.011)"/>
    <path id="Path_24" data-name="Path 24" class="cls-4" d="m310.3 158.29-5.49 4.71a14.921 14.921 0 0 1 .47 2.68c2.07-.3 4.91-2.57 5.13-4.74a7.17 7.17 0 0 0-.11-2.65z" transform="translate(-248.08 -125.011)"/>
    <path id="Path_25" data-name="Path 25" class="cls-2" d="M319.32 146.64c-1.85 7.91-2.47 11.3-7.21 14.71-7.12 5.14-16.43 1.14-17-7.17-.5-7.47 2.62-19.16 11-21a11.09 11.09 0 0 1 13.21 13.46z" transform="translate(-248.08 -125.011)"/>
    <path id="Path_26" data-name="Path 26" class="cls-1" d="M316.05 139.5c-2.87 2.2-1.62 10.17 1.94 12.61 5.56-1.33 6.61-19.17-1.94-12.61z" transform="translate(-248.08 -125.011)"/>
    <path id="Path_27" data-name="Path 27" class="cls-1" d="M317 132c-.17-3.78 1.33-10.72 10.61-4.5s-1.61 10-6.05 9.11S317 132 317 132z" transform="translate(-248.08 -125.011)"/>
    <path id="Path_28" data-name="Path 28" class="cls-1" d="M306 131.61c-3.22.56-7.29 5.33-8.15 7.28 4.82-.89 18.1 3.22 18.1 3.22s5.94-.67 2.61-5.25-12.56-5.25-12.56-5.25z" transform="translate(-248.08 -125.011)"/>
    <path id="Path_29" data-name="Path 29" class="cls-3" d="M290.55 223.57s-6.46 63.07-5.92 88c.56 26 16.71 85.19 16.71 85.19h11.07S304 339.09 305 313.59c1.07-27.81 9.9-90 9.9-90z" transform="translate(-248.08 -125.011)"/>
    <path id="Path_30" data-name="Path 30" class="cls-6" d="M290.55 223.57s-6.46 63.07-5.92 88c.56 26 16.71 85.19 16.71 85.19h11.07S304 339.09 305 313.59c1.07-27.81 9.9-90 9.9-90z" transform="translate(-248.08 -125.011)"/>
    <path id="Path_31" data-name="Path 31" class="cls-1" d="M313.37 397.2h-12.99l-.95-4.14 14.54-.51z" transform="translate(-248.08 -125.011)"/>
    <path id="Path_32" data-name="Path 32" class="cls-4" d="M304.89 239.26c-8.17 16.43-1.64 46.4 1.25 57.55 1.48-16.74 4-37.22 5.92-52.25-1.23-8.5-3.4-12.87-7.17-5.3z" transform="translate(-248.08 -125.011)"/>
    <path id="Path_33" data-name="Path 33" class="cls-2" d="m384.28 334.65-2.76 7.71-18.87-3.56 2.76-7.71z" transform="translate(-248.08 -125.011)"/>
    <path id="Path_34" data-name="Path 34" class="cls-1" d="m379.29 342.61.64-9.18a.76.76 0 0 1 .61-.68l7.4-1.48a1.13 1.13 0 0 1 1.37 1.22c-.28 3.2-.57 4.75-.86 8.79-.17 2.48-.41 9.6-.65 13s-3.67 3.82-3.88 2.41c-.94-6.32-2.54-10.72-4.22-12.77a1.91 1.91 0 0 1-.41-1.31z" transform="translate(-248.08 -125.011)"/>
    <g id="Group_2" data-name="Group 2" class="cls-5" transform="translate(114.58 206.079)">
        <path id="Path_35" data-name="Path 35" d="m362.66 338.8 9.72 1.83 2.76-7.71-9.72-1.83z" transform="translate(-362.66 -331.09)"/>
    </g>
    <path id="Path_36" data-name="Path 36" class="cls-3" d="M299.75 223.57s9.07 65.08 15.23 89.57c6.41 25.47 54.16 27.64 54.16 27.64l4.86-9.94s-27.88-7.42-39.91-24.18c-5.21-27.44-10-83.09-10-83.09z" transform="translate(-248.08 -125.011)"/>
    <path id="Path_37" data-name="Path 37" class="cls-6" d="M299.75 223.57s9.07 65.08 15.23 89.57c6.41 25.47 54.16 27.64 54.16 27.64l4.86-9.94s-27.88-7.42-39.91-24.18c-5.21-27.44-10-83.09-10-83.09z" transform="translate(-248.08 -125.011)"/>
    <path id="Path_38" data-name="Path 38" class="cls-1" d="m374.56 329.91-4.26 12.27-4.41.05 4.28-13.85z" transform="translate(-248.08 -125.011)"/>
    <path id="Path_39" data-name="Path 39" class="cls-3" d="M380.52 345.59a3.39 3.39 0 0 1-.65 2 1.2 1.2 0 0 1-1 .4.52.52 0 0 1-.49-.29c-.48-1 1.42-4.33 1.64-4.71a.23.23 0 0 1 .21-.11.16.16 0 0 1 .15.14 13.691 13.691 0 0 1 .14 2.57zm-1.81 1.55a.76.76 0 0 0 0 .36.23.23 0 0 0 .21.12.83.83 0 0 0 .64-.26c.48-.53.65-1.87.48-3.67a11.819 11.819 0 0 0-1.33 3.45z" transform="translate(-248.08 -125.011)"/>
    <path id="Path_40" data-name="Path 40" class="cls-3" d="M380.4 343.07a.19.19 0 0 1 0 .08c-.51 1-2.43 3-3.35 2.94-.22 0-.48-.16-.5-.7a1.6 1.6 0 0 1 .41-1.09 6.23 6.23 0 0 1 3.27-1.41.16.16 0 0 1 .16.07.11.11 0 0 1 .01.11zm-3.47 2.15a.371.371 0 0 0 0 .11c0 .35.16.37.2.37.56.06 2.05-1.33 2.72-2.36a5.21 5.21 0 0 0-2.61 1.19 1.1 1.1 0 0 0-.31.69z" transform="translate(-248.08 -125.011)"/>
    <path id="Path_41" data-name="Path 41" class="cls-1" d="M305.41 146.59c-.11.65-.55 1.12-1 1s-.68-.66-.57-1.31.54-1.12 1-1.05.68.71.57 1.36z" transform="translate(-248.08 -125.011)"/>
    <path id="Path_42" data-name="Path 42" class="cls-1" d="M298.05 145.34c-.11.65-.54 1.12-1 1s-.68-.65-.57-1.31.55-1.12 1-1 .68.66.57 1.31z" transform="translate(-248.08 -125.011)"/>
    <path id="Path_43" data-name="Path 43" class="cls-1" d="m297.66 144.1-1.48-.72s.59 1.36 1.48.72z" transform="translate(-248.08 -125.011)"/>
    <path id="Path_44" data-name="Path 44" d="M300.92 146.9a18 18 0 0 1-3 3.76 2.86 2.86 0 0 0 2.24.83z" transform="translate(-248.08 -125.011)" style="fill:#ed893e"/>
    <path id="Path_45" data-name="Path 45" class="cls-1" d="M303.25 154.64a5.559 5.559 0 0 1-1-.09.19.19 0 0 1-.16-.22.2.2 0 0 1 .22-.16 5.25 5.25 0 0 0 4.55-1.3.19.19 0 0 1 .28 0 .2.2 0 0 1 0 .27 5.46 5.46 0 0 1-3.89 1.5z" transform="translate(-248.08 -125.011)"/>
    <path id="Path_46" data-name="Path 46" class="cls-2" d="M320.24 154.34a6 6 0 0 1-3.61 2.75c-2 .51-3-1.3-2.38-3.18.53-1.69 2.23-4 4.24-3.69a2.68 2.68 0 0 1 1.75 4.12z" transform="translate(-248.08 -125.011)"/>
    <path id="Path_47" data-name="Path 47" class="cls-1" d="M309.41 145.59a.38.38 0 0 1-.36-.27c-.53-1.71-2.72-2.45-2.74-2.45a.389.389 0 1 1 .24-.74 5.172 5.172 0 0 1 3.24 3 .39.39 0 0 1-.26.49z" transform="translate(-248.08 -125.011)"/>
    <path id="Path_48" data-name="Path 48" class="cls-1" d="M297.22 141.56a.38.38 0 0 1-.19-.72 3.86 3.86 0 0 1 3.53-.24.39.39 0 1 1-.35.69 3.12 3.12 0 0 0-2.8.22.34.34 0 0 1-.19.05z" transform="translate(-248.08 -125.011)"/>
    <path id="Path_49" data-name="Path 49" class="cls-2" d="M331.41 180.58a107.662 107.662 0 0 1 12.23 7.76c1.94 1.43 3.88 2.89 5.72 4.51a57.791 57.791 0 0 1 5.36 5.16l.64.7c.1.12.19.21.4.47a6.77 6.77 0 0 1 .48.65 11.351 11.351 0 0 1 1.15 2.33 22.005 22.005 0 0 1 1 4.05 51.535 51.535 0 0 1 .49 7.44 100.153 100.153 0 0 1-1.13 14.3l-4.14-.25c-.13-2.27-.26-4.6-.44-6.88s-.36-4.57-.65-6.8a56.823 56.823 0 0 0-1.09-6.46 15.729 15.729 0 0 0-.88-2.69 3.289 3.289 0 0 0-.45-.77 2.1 2.1 0 0 1-.24-.22l-.59-.56a85.291 85.291 0 0 0-10.38-8.22c-1.85-1.29-3.77-2.49-5.68-3.7s-3.9-2.39-5.76-3.47z" transform="translate(-248.08 -125.011)"/>
    <path id="Path_50" data-name="Path 50" class="cls-3" d="M328.79 173.73c3.46.34 11.21 7.63 11.21 7.63l-7.19 14.17s-9.23-5-10-9.5c-.81-4.65 2.02-12.69 5.98-12.3z" transform="translate(-248.08 -125.011)"/>
    <path id="Path_51" data-name="Path 51" class="cls-3" d="M301 408.36a3.07 3.07 0 0 1-2-.5 1.09 1.09 0 0 1-.35-.95.62.62 0 0 1 .33-.51c1-.55 4.27 1.11 4.64 1.31a.192.192 0 0 1-.06.36 13.69 13.69 0 0 1-2.56.29zm-1.46-1.69a.74.74 0 0 0-.36.07.24.24 0 0 0-.13.21.69.69 0 0 0 .22.62c.5.45 1.85.52 3.66.22a10.5 10.5 0 0 0-3.35-1.12z" transform="translate(-248.08 -125.011)"/>
    <path id="Path_52" data-name="Path 52" class="cls-3" d="M303.58 408.07h-.08c-1-.45-2.91-2.21-2.76-3.14 0-.22.19-.49.73-.55a1.4 1.4 0 0 1 1.07.34c1 .86 1.22 3.06 1.23 3.15a.21.21 0 0 1-.08.18.2.2 0 0 1-.11.02zm-1.95-3.32h-.12c-.35 0-.38.18-.39.22-.09.56 1.22 1.95 2.22 2.55a4.54 4.54 0 0 0-1-2.52 1 1 0 0 0-.71-.25z" transform="translate(-248.08 -125.011)"/>
    <path id="Path_53" data-name="Path 53" class="cls-1" d="m305 145.35-1.49-.72s.62 1.37 1.49.72z" transform="translate(-248.08 -125.011)"/>
    <path id="Path_54" data-name="Path 54" d="m324.3 221.62.85 3c.11.24-.16.47-.54.47h-34.23c-.3 0-.54-.15-.56-.33l-.3-3c0-.21.24-.38.56-.38h33.68a.61.61 0 0 1 .54.24z" transform="translate(-248.08 -125.011)" style="fill:#fafafa"/>
    <path id="Path_55" data-name="Path 55" class="cls-3" d="M319.78 225.38h.9c.18 0 .31-.09.3-.2l-.42-3.87c0-.11-.17-.21-.35-.21h-.9c-.18 0-.32.1-.31.21l.43 3.87c.01.11.17.2.35.2z" transform="translate(-248.08 -125.011)"/>
    <g id="Group_3" data-name="Group 3" transform="translate(70.919 96.089)" style="opacity:.3">
        <path id="Path_56" data-name="Path 56" d="M319.78 225.38h.9c.18 0 .31-.09.3-.2l-.42-3.87c0-.11-.17-.21-.35-.21h-.9c-.18 0-.32.1-.31.21l.43 3.87c.01.11.17.2.35.2z" transform="translate(-318.999 -221.1)"/>
    </g>
    <path id="Path_57" data-name="Path 57" class="cls-3" d="M292.92 225.38h.9c.18 0 .32-.09.3-.2l-.42-3.87c0-.11-.17-.21-.35-.21h-.9c-.18 0-.32.1-.3.21l.42 3.87c.01.11.17.2.35.2z" transform="translate(-248.08 -125.011)"/>
    <path id="Path_58" data-name="Path 58" class="cls-6" d="M292.92 225.38h.9c.18 0 .32-.09.3-.2l-.42-3.87c0-.11-.17-.21-.35-.21h-.9c-.18 0-.32.1-.3.21l.42 3.87c.01.11.17.2.35.2z" transform="translate(-248.08 -125.011)"/>
    <path id="Path_59" data-name="Path 59" class="cls-3" d="M306.35 225.38h.9c.18 0 .32-.09.3-.2l-.42-3.87c0-.11-.17-.21-.35-.21h-.9c-.18 0-.32.1-.31.21l.43 3.87c0 .11.17.2.35.2z" transform="translate(-248.08 -125.011)"/>
    <path id="Path_60" data-name="Path 60" class="cls-6" d="M306.35 225.38h.9c.18 0 .32-.09.3-.2l-.42-3.87c0-.11-.17-.21-.35-.21h-.9c-.18 0-.32.1-.31.21l.43 3.87c0 .11.17.2.35.2z" transform="translate(-248.08 -125.011)"/>
    <path id="Path_61" data-name="Path 61" class="cls-2" d="m353.31 227.2-2.63 8.44 7.67-3.23s.55-5.22-2.26-7.14z" transform="translate(-248.08 -125.011)"/>
    <path id="Path_62" data-name="Path 62" class="cls-2" d="m353.11 242.08 6.28-3.05-1.04-6.62-7.67 3.23z" transform="translate(-248.08 -125.011)"/>
</svg>
