<svg id="freepik--character-1--inject-92" xmlns="http://www.w3.org/2000/svg" width="131.974" height="298.633" viewBox="0 0 131.974 298.633">
    <defs>
        <style>
            .cls-1{fill:#ff8b7b}.cls-2{fill:#263238}.cls-3{opacity:.2}.cls-4{fill:#ff81ae}.cls-5{opacity:.4}.cls-6{fill:#fff}
        </style>
    </defs>
    <path id="Path_63" data-name="Path 63" class="cls-1" d="m198.85 407.55 8.3.08 2.26-19.2-8.3-.07z" transform="translate(-127.496 -117.607)"/>
    <path id="Path_64" data-name="Path 64" class="cls-2" d="m207.16 406.67-9.06-.08a.78.78 0 0 0-.75.56l-2.19 7.35a1.13 1.13 0 0 0 1.09 1.49c3.27 0 8-.18 12.12-.14 4.8 0 5.79.34 11.42.39 3.41 0 4.61-3.41 3.21-3.73-6.38-1.48-8.53-1.67-13.88-5.18a3.63 3.63 0 0 0-1.96-.66z" transform="translate(-127.496 -117.607)"/>
    <path id="Path_65" data-name="Path 65" class="cls-3" d="m209.41 388.44-1.17 9.89-8.3-.07 1.17-9.9z" transform="translate(-127.496 -117.607)"/>
    <path id="Path_66" data-name="Path 66" class="cls-4" d="M210.59 408.15a13.649 13.649 0 0 1-2.66-.32.2.2 0 0 1-.15-.17.18.18 0 0 1 .11-.2c.39-.2 3.88-1.87 4.83-1.27a.59.59 0 0 1 .28.53 1.15 1.15 0 0 1-.44.94 3.22 3.22 0 0 1-1.97.49zm-2-.59c1.8.31 3.16.24 3.71-.2a.77.77 0 0 0 .3-.64.21.21 0 0 0-.1-.2c-.5-.32-2.5.39-3.9 1.04z" transform="translate(-127.496 -117.607)"/>
    <path id="Path_67" data-name="Path 67" class="cls-4" d="M208 407.83a.19.19 0 0 1-.12 0 .23.23 0 0 1-.07-.19c0-.15.65-3.72 2.63-3.5.52.06.67.32.7.53.13.94-2 2.73-3.06 3.18a.11.11 0 0 1-.08-.02zm2.27-3.34c-1.19 0-1.78 1.94-2 2.79 1.1-.62 2.55-2 2.47-2.59 0 0 0-.16-.35-.2z" transform="translate(-127.496 -117.607)"/>
    <path id="Path_68" data-name="Path 68" class="cls-1" d="M224.29 177.7c.71 5.2 1.49 10.59 2.34 15.84s1.78 10.52 3 15.59c.13.64.29 1.26.45 1.88l.42 1.68a6.69 6.69 0 0 0 1 2 34.1 34.1 0 0 0 4.62 5.24 154.945 154.945 0 0 0 12.1 10l-3 5.62a70.076 70.076 0 0 1-7.86-3.46 68.43 68.43 0 0 1-7.5-4.42 37.17 37.17 0 0 1-7.13-6.17 17.08 17.08 0 0 1-3.13-5c-.26-.63-.31-.84-.44-1.22l-.35-1c-.24-.69-.47-1.38-.67-2.06a159.054 159.054 0 0 1-4.14-16.44c-1.06-5.52-1.91-11-2.5-16.63z" transform="translate(-127.496 -117.607)"/>
    <path id="Path_69" data-name="Path 69" class="cls-2" d="M208.67 180.09c-.13 9.48 3.57 23 3.57 23l13.17-4 5.42-1.64a74.481 74.481 0 0 0-3.21-18.57c-3.21-10.33-12.14-13.39-17.29-6.28-1.16 1.64-1.62 4.34-1.66 7.49z" transform="translate(-127.496 -117.607)"/>
    <path id="Path_70" data-name="Path 70" class="cls-3" d="M208.67 180.09c-.13 9.48 3.57 23 3.57 23l13.17-4a71.792 71.792 0 0 0-2.33-10c-2.66-8.59-9.3-12.15-14.41-9z" transform="translate(-127.496 -117.607)"/>
    <path id="Path_71" data-name="Path 71" class="cls-1" d="m247.74 229.94 5.86 2.81-2.6 8.17s-5.61-2.47-7.46-7.32z" transform="translate(-127.496 -117.607)"/>
    <path id="Path_72" data-name="Path 72" class="cls-1" d="m259.47 237.15-3.94 6.71-4.56-2.94 2.63-8.17z" transform="translate(-127.496 -117.607)"/>
    <path id="Path_73" data-name="Path 73" class="cls-4" d="M213.87 240.71s9.44 46.08 11.06 71.62c1.68 26.57-12.43 81.18-12.43 81.18l-15-.32s5.06-57.3 1.86-83.53c-3.48-28.59-10.92-71.17-10.92-71.17z" transform="translate(-127.496 -117.607)"/>
    <path id="Path_74" data-name="Path 74" class="cls-3" d="M195.21 250c-1.92-1.82-3.23.27-4.1 4.14 1.65 10 3.81 23.44 5.7 36.52 6.03-11.86 4.61-34.77-1.6-40.66z" transform="translate(-127.496 -117.607)"/>
    <path id="Path_75" data-name="Path 75" class="cls-4" d="m195.67 393.86 17.62.36 1.3-5.86-18.7-.04z" transform="translate(-127.496 -117.607)"/>
    <path id="Path_76" data-name="Path 76" class="cls-5" d="m195.67 393.86 17.62.36 1.3-5.86-18.7-.04z" transform="translate(-127.496 -117.607)"/>
    <path id="Path_77" data-name="Path 77" class="cls-1" d="m134.36 383.21 6.84 4.69 12.6-14.65-6.84-4.7z" transform="translate(-127.496 -117.607)"/>
    <path id="Path_78" data-name="Path 78" class="cls-2" d="m142.27 387.05-7.27-5.39a.78.78 0 0 0-.93 0l-6.1 4.67a1.13 1.13 0 0 0 0 1.84c2.67 1.9 6.59 4.56 9.89 7 3.87 2.86 3.83 2.8 8.36 6.15 2.74 2 5.73 0 4.78-1.13-4.3-4.95-5.26-5.49-7.53-11.47a3.57 3.57 0 0 0-1.2-1.67z" transform="translate(-127.496 -117.607)"/>
    <path id="Path_79" data-name="Path 79" class="cls-3" d="m153.8 373.25-6.5 7.56-6.84-4.7 6.5-7.56z" transform="translate(-127.496 -117.607)"/>
    <path id="Path_80" data-name="Path 80" class="cls-4" d="M144.17 390.26a13 13 0 0 1-2-1.82.2.2 0 0 1 0-.23.21.21 0 0 1 .21-.1c.43.08 4.23.77 4.65 1.81a.6.6 0 0 1-.08.6 1.19 1.19 0 0 1-.91.51 3.25 3.25 0 0 1-1.87-.77zm-1.26-1.65c1.26 1.31 2.41 2.06 3.11 2a.76.76 0 0 0 .62-.34.22.22 0 0 0 0-.22c-.19-.54-2.2-1.12-3.73-1.44z" transform="translate(-127.496 -117.607)"/>
    <path id="Path_81" data-name="Path 81" class="cls-4" d="M142.24 388.47a.28.28 0 0 1-.08-.11.19.19 0 0 1 .05-.19c.11-.11 2.72-2.63 4.19-1.29.38.35.35.65.25.84-.44.84-3.22 1-4.34.78zm3.8-1.38c-1-.7-2.59.52-3.25 1.09 1.25.14 3.25-.14 3.51-.64 0 0 .08-.15-.17-.37z" transform="translate(-127.496 -117.607)"/>
    <path id="Path_82" data-name="Path 82" class="cls-4" d="M198.44 239.36s-3 44.45-5.8 69.89c-2.95 26.46-39.12 69.94-39.12 69.94l-12.24-8.64s25.26-42 26.67-68.36c1.52-28.76 1.71-65.35 1.71-65.35z" transform="translate(-127.496 -117.607)"/>
    <path id="Path_83" data-name="Path 83" class="cls-4" d="m139.04 370.83 14.01 9.98 3.91-4.12-14.87-11.4z" transform="translate(-127.496 -117.607)"/>
    <path id="Path_84" data-name="Path 84" class="cls-5" d="m139.04 370.83 14.01 9.98 3.91-4.12-14.87-11.4z" transform="translate(-127.496 -117.607)"/>
    <path id="Path_85" data-name="Path 85" class="cls-2" d="M219.64 169.22s7.57 25.82-5.77 71.49l-44.21-3.87c.29-6.82 7.46-39.55 3.71-72.1a114.924 114.924 0 0 1 15-.57 164.3 164.3 0 0 1 18.79 1.64 82.69 82.69 0 0 1 12.48 3.41z" transform="translate(-127.496 -117.607)"/>
    <path id="Path_86" data-name="Path 86" class="cls-3" d="m182.19 181.41-7.74 4.83c0 5.69-.32 11.2-.71 16.36 4.84-4.26 7.92-12.47 8.45-21.19z" transform="translate(-127.496 -117.607)"/>
    <path id="Path_87" data-name="Path 87" class="cls-1" d="M192.05 143.17c.66 6.15.87 17.33-3.71 21 0 0 1.11 6.31 12.35 7.26 9 .76 6.44-5.62 6.44-5.62-6.6-2.2-6-7.19-4.4-11.78z" transform="translate(-127.496 -117.607)"/>
    <path id="Path_88" data-name="Path 88" class="cls-6" d="M194.12 178.43a.27.27 0 0 1-.16-.06c-.06-.05-6.84-5.74-8.31-12.71a.24.24 0 0 1 .19-.29.25.25 0 0 1 .3.19c1.27 6 6.65 11.11 7.89 12.21a8.23 8.23 0 0 1 7.23-4.93.26.26 0 0 1 .25.26.28.28 0 0 1-.26.24 7.6 7.6 0 0 0-6.91 4.94.24.24 0 0 1-.17.14z" transform="translate(-127.496 -117.607)"/>
    <path id="Path_89" data-name="Path 89" class="cls-6" d="M208.46 179.08h-.06a.27.27 0 0 1-.19-.2 8 8 0 0 0-4.69-5.46.24.24 0 0 1-.13-.33.25.25 0 0 1 .32-.13 8.51 8.51 0 0 1 4.86 5.3c4.83-6.87 1.21-10.58 1.05-10.73a.25.25 0 0 1 0-.36.24.24 0 0 1 .35 0s4.25 4.31-1.31 11.81a.26.26 0 0 1-.2.1z" transform="translate(-127.496 -117.607)"/>
    <path id="Path_90" data-name="Path 90" class="cls-3" d="m196.4 147.6 6.32 6.42a19 19 0 0 0-.87 3.29c-2.54-.6-5.83-3.74-5.87-6.46a9.16 9.16 0 0 1 .42-3.25z" transform="translate(-127.496 -117.607)"/>
    <path id="Path_91" data-name="Path 91" class="cls-2" d="M212.8 127.08c3.93 2 5.21 13-.21 15s-7.22-18.77.21-15z" transform="translate(-127.496 -117.607)"/>
    <path id="Path_92" data-name="Path 92" class="cls-1" d="M192.13 134c-.21 8.24-.76 13 3 17.61 5.67 6.87 16.1 4 18.77-4 2.4-7.2 2.35-19.46-5.38-23.42a11.23 11.23 0 0 0-16.39 9.81z" transform="translate(-127.496 -117.607)"/>
    <path id="Path_93" data-name="Path 93" class="cls-2" d="M204.35 137.38c-.06.67.25 1.24.68 1.28s.84-.47.9-1.14-.25-1.24-.69-1.28-.83.47-.89 1.14z" transform="translate(-127.496 -117.607)"/>
    <path id="Path_94" data-name="Path 94" class="cls-2" d="M211.89 138c-.06.67.24 1.24.68 1.28s.84-.47.89-1.14-.24-1.24-.68-1.28-.84.51-.89 1.14z" transform="translate(-127.496 -117.607)"/>
    <path id="Path_95" data-name="Path 95" d="M209.46 138.16a23.86 23.86 0 0 0 2.69 6 3.86 3.86 0 0 1-3.24.32z" transform="translate(-127.496 -117.607)" style="fill:#ff5652"/>
    <path id="Path_96" data-name="Path 96" class="cls-2" d="M206.81 146.13a5.61 5.61 0 0 1-4.44-2.64.2.2 0 0 1 .08-.27.19.19 0 0 1 .26.08 5.33 5.33 0 0 0 4.13 2.44.2.2 0 0 1 .18.21.19.19 0 0 1-.21.18z" transform="translate(-127.496 -117.607)"/>
    <path id="Path_97" data-name="Path 97" class="cls-2" d="M202.3 134.75a.37.37 0 0 1-.24-.1.39.39 0 0 1 0-.55 3.9 3.9 0 0 1 3.33-1.34.39.39 0 0 1 .33.45.4.4 0 0 1-.45.33 3.11 3.11 0 0 0-2.62 1.08.37.37 0 0 1-.35.13z" transform="translate(-127.496 -117.607)"/>
    <path id="Path_98" data-name="Path 98" class="cls-2" d="M215.42 135.74a.39.39 0 0 1-.34-.25 3.12 3.12 0 0 0-2.05-2 .393.393 0 0 1 .16-.77 3.86 3.86 0 0 1 2.62 2.45.39.39 0 0 1-.22.51.33.33 0 0 1-.17.06z" transform="translate(-127.496 -117.607)"/>
    <path id="Path_99" data-name="Path 99" class="cls-1" d="M181.51 178.38c-1.71 2.23-3.56 4.63-5.28 7s-3.48 4.77-5.15 7.19a163.365 163.365 0 0 0-9.28 14.72l-1 1.83a7 7 0 0 0-.49 1.15 10.18 10.18 0 0 0-.48 2.87 22.92 22.92 0 0 0 1.26 7.21 70.14 70.14 0 0 0 7.48 15.15l-4.78 4.2a56.621 56.621 0 0 1-6.51-7.21 49.538 49.538 0 0 1-5.26-8.41 30.48 30.48 0 0 1-3.09-10.39 20.31 20.31 0 0 1 .33-6.17 18.23 18.23 0 0 1 1-3.15l1-2.27a93.782 93.782 0 0 1 4.35-8.55q2.34-4.125 4.88-8.08c1.69-2.64 3.46-5.2 5.3-7.72s3.68-5 5.77-7.47z" transform="translate(-127.496 -117.607)"/>
    <path id="Path_100" data-name="Path 100" class="cls-2" d="M173.37 164.74c-7.84 1.17-19 25.18-19 25.18l17 9.76a56.74 56.74 0 0 0 11.78-16.52c4.31-9.84-1.37-19.67-9.78-18.42z" transform="translate(-127.496 -117.607)"/>
    <path id="Path_101" data-name="Path 101" class="cls-1" d="m166.32 234 8.9.65-6.08 8.62s-6.24-2-6.61-5.18z" transform="translate(-127.496 -117.607)"/>
    <path id="Path_102" data-name="Path 102" class="cls-1" d="m180.44 240.27-5.37 6.9-5.93-3.92 6.08-8.62z" transform="translate(-127.496 -117.607)"/>
    <path id="Path_103" data-name="Path 103" class="cls-2" d="M187.5 124.38c-6.08 6.54 2.24 20.71 5.71 20.7s5.24-12.83 3.5-16.17c1.81 1 17.95 1.34 19.54.27 2.92-2 5.39-8.3-3.57-11.35 0 2.25-2.59 3.13-10 .8-9.11-2.9-19.93.79-15.18 5.75z" transform="translate(-127.496 -117.607)"/>
    <path id="Path_104" data-name="Path 104" class="cls-2" d="M188.34 124.58a3.93 3.93 0 0 0-5.21 1.09 24.19 24.19 0 0 1 5.21-1.09z" transform="translate(-127.496 -117.607)"/>
    <path id="Path_105" data-name="Path 105" class="cls-1" d="M187.64 142.71a7.82 7.82 0 0 0 4.56 3.86c2.62.83 4-1.5 3.36-4-.59-2.27-2.67-5.42-5.33-5.15s-3.73 3.02-2.59 5.29z" transform="translate(-127.496 -117.607)"/>
</svg>
