<svg id="freepik--Hearts--inject-92" xmlns="http://www.w3.org/2000/svg" width="55.759" height="81.791" viewBox="0 0 55.759 81.791">
    <defs>
        <style>
            .cls-1{fill:#ff81ae}
        </style>
    </defs>
    <path id="Path_106" data-name="Path 106" class="cls-1" d="M261.13 87.09a10.61 10.61 0 0 0-14.61-3.4 10.6 10.6 0 0 0-18 11.2l11.2 18 18-11.2a10.61 10.61 0 0 0 3.41-14.6z" transform="translate(-226.919 -78.689)"/>
    <path id="Path_107" data-name="Path 107" class="cls-1" d="M278.81 111.68a9.1 9.1 0 0 0-12.7 2.15 9.12 9.12 0 0 0-10.56 14.86l14.86 10.55L281 124.39a9.1 9.1 0 0 0-2.19-12.71z" transform="translate(-226.919 -78.689)"/>
    <path id="Path_108" data-name="Path 108" d="M278.81 111.68a9.1 9.1 0 0 0-12.7 2.15 9.12 9.12 0 0 0-10.56 14.86l14.86 10.55L281 124.39a9.1 9.1 0 0 0-2.19-12.71z" transform="translate(-226.919 -78.689)" style="fill:#fff;opacity:.5"/>
    <path id="Path_109" data-name="Path 109" class="cls-1" d="M254.91 148.61a6.39 6.39 0 0 0-8-4.15 6.379 6.379 0 1 0-12.161 3.86l3.851 12.16 12.16-3.86a6.38 6.38 0 0 0 4.15-8.01z" transform="translate(-226.919 -78.689)"/>
</svg>
