<svg xmlns="http://www.w3.org/2000/svg" width="568" height="450" viewBox="0 0 568 450">
    <defs>
        <style>
            .cls-1{fill:#ebebeb}.cls-2{fill:#f0f0f0}.cls-3{fill:#f5f5f5}.cls-4{fill:#e6e6e6}.cls-5{fill:#fff}.cls-6{fill:#263238}.cls-7{fill:#ffb573}.cls-8{fill:#ff81ae}.cls-10,.cls-9{opacity:.2}.cls-11{opacity:.3}.cls-15{fill:#ff8b7b}.cls-16{opacity:.4}
        </style>
    </defs>
    <g id="Love_is_in_the_air-rafiki_1_" data-name="Love is in the air-rafiki (1)" transform="translate(0 -55)">
        <g id="freepik--background-complete--inject-92" transform="translate(0 55)">
            <path id="Rectangle_3" data-name="Rectangle 3" class="cls-1" transform="translate(0 404.84)" d="M0 0h568v.25H0z"/>
            <path id="Rectangle_4" data-name="Rectangle 4" class="cls-1" transform="translate(331.796 411.65)" d="M0 0h25.46v.25H0z"/>
            <path id="Rectangle_5" data-name="Rectangle 5" class="cls-1" transform="translate(463.11 417.06)" d="M0 0h60.33v.25H0z"/>
            <path id="Rectangle_6" data-name="Rectangle 6" class="cls-1" transform="translate(257.023 411.77)" d="M0 0h62.33v.25H0z"/>
            <path id="Rectangle_7" data-name="Rectangle 7" class="cls-1" transform="translate(192.599 419.25)" d="M0 0h13.04v.25H0z"/>
            <path id="Rectangle_8" data-name="Rectangle 8" class="cls-1" transform="translate(224.759 419.25)" d="M0 0h59.38v.25H0z"/>
            <path id="Rectangle_9" data-name="Rectangle 9" class="cls-1" transform="translate(52.46 415.03)" d="M0 0h38.45v.25H0z"/>
            <path id="Path_1" data-name="Path 1" class="cls-1" d="M237 337.8H43.91a5.71 5.71 0 0 1-5.7-5.71V60.66a5.71 5.71 0 0 1 5.7-5.66H237a5.71 5.71 0 0 1 5.71 5.71v271.38a5.71 5.71 0 0 1-5.71 5.71zM43.91 55.2a5.46 5.46 0 0 0-5.45 5.46v271.43a5.46 5.46 0 0 0 5.45 5.46H237a5.47 5.47 0 0 0 5.46-5.46V60.66A5.47 5.47 0 0 0 237 55.2z" transform="translate(0 -55)"/>
            <path id="Path_2" data-name="Path 2" class="cls-1" d="M453.31 337.8h-193.1a5.72 5.72 0 0 1-5.71-5.71V60.66a5.72 5.72 0 0 1 5.71-5.66h193.1a5.71 5.71 0 0 1 5.69 5.66v271.43a5.71 5.71 0 0 1-5.69 5.71zM260.21 55.2a5.47 5.47 0 0 0-5.46 5.46v271.43a5.47 5.47 0 0 0 5.46 5.46h193.1a5.47 5.47 0 0 0 5.46-5.46V60.66a5.47 5.47 0 0 0-5.46-5.46z" transform="translate(68 -55)"/>
            <path id="Rectangle_10" data-name="Rectangle 10" class="cls-2" transform="rotate(180 159.558 198.99)" d="M0 0h29.1v108.27H0z"/>
            <path id="Rectangle_11" data-name="Rectangle 11" class="cls-2" transform="rotate(180 145.26 202.42)" d="M0 0h195.25v6.86H0z"/>
            <path id="Rectangle_12" data-name="Rectangle 12" class="cls-3" transform="translate(68.52 289.71)" d="M0 0h184.9v108.27H0z"/>
            <path id="Rectangle_13" data-name="Rectangle 13" class="cls-2" transform="translate(104.594 282.591)" d="M0 0h146.5v35.51H0z"/>
            <path id="Rectangle_14" data-name="Rectangle 14" class="cls-2" transform="translate(104.594 349.14)" d="M0 0h146.5v35.51H0z"/>
            <rect id="Rectangle_15" data-name="Rectangle 15" class="cls-3" width="48.22" height="4.87" rx="2.15" transform="rotate(180 102.84 160.705)"/>
            <rect id="Rectangle_16" data-name="Rectangle 16" class="cls-3" width="48.22" height="4.87" rx="2.15" transform="rotate(180 102.84 192.915)"/>
            <path id="Path_3" data-name="Path 3" class="cls-4" d="M314.22 382.4h108.27l10.75-258.67H324.97z" transform="translate(68 22.44)"/>
            <path id="Path_4" data-name="Path 4" class="cls-3" d="M302.94 382.4h117.55l10.75-258.67H313.69z" transform="translate(68 22.44)"/>
            <path id="Path_5" data-name="Path 5" class="cls-5" d="m411.87 373.4 10-240.67h-99.56l-10 240.67z" transform="translate(54.393 22.44)"/>
            <path id="Path_6" data-name="Path 6" class="cls-4" d="M161.37 262.32c-1.29-36.44-2.61-86.16.19-104.28l4.62-3.57s-1 3.42-1.54 59.41c-.5 52.28-1.11 43-.73 48.28a1.28 1.28 0 0 1-1.27 1.38 1.26 1.26 0 0 1-1.27-1.22z" transform="translate(22.023 -21.939)"/>
            <path id="Path_7" data-name="Path 7" class="cls-4" d="M152.82 142.48c-8.53-11.57-26.5-19.79-45.1-19.75-7.3 0 14.88 27.53 29.67 40.65 11 9.76 23.05 18.53 26.33 29.29-1.57-22.67-2.36-38.62-10.9-50.19z" transform="translate(16.331 -35.725)"/>
            <path id="Path_8" data-name="Path 8" class="cls-4" d="M169.94 172.62c7.84-12 25.3-21.31 43.87-22.35 7.29-.41-8.28 26.09-25.31 38.68-11.83 8.73-23.85 23.49-26.5 34.42.25-22.69.1-38.7 7.94-50.75z" transform="translate(24.68 -27.57)"/>
            <path id="Path_9" data-name="Path 9" class="cls-4" d="M166.45 123.18c7.13-14.06 23.8-27.61 41.93-33.12 7.12-2.16-1.51 23.16-23 44.79-11.31 11.39-22.37 29.83-24.47 41.51-.73-22.98-1.6-39.13 5.54-53.18z" transform="translate(24.265 -55)"/>
            <path id="Path_10" data-name="Path 10" class="cls-2" d="m144.68 238.19 1.43 27.88a1.28 1.28 0 0 0 1.27 1.2h31.51a1.28 1.28 0 0 0 1.27-1.2l1.43-27.88z" transform="translate(21.245 -9.674)"/>
            <path id="Path_11" data-name="Path 11" class="cls-2" d="M183.98 244.1h-41.69l-1.2-10.82h44.09z" transform="translate(21.044 -13.32)"/>
        </g>
        <g id="freepik--Shadow--inject-92" transform="translate(56.11 482.36)">
            <ellipse id="freepik--path--inject-92" class="cls-3" cx="227.89" cy="11.32" rx="227.89" ry="11.32"/>
        </g>
        <g id="freepik--character-2--inject-92" transform="translate(295.101 202.451)">
            <path id="Path_12" data-name="Path 12" class="cls-6" d="M303 131.33c-6.75 4.11-9.83 11.59-15.5 19.34s-8.5 7.62-8.5 7.62 15.21 13.21 35.94 9.29 17.94-26 7.79-32.5c-1.52-6.16-13.18-7.75-19.73-3.75z" transform="translate(-248.08 -125.011)"/>
            <path id="Path_13" data-name="Path 13" class="cls-7" d="M292.33 184.17c-.1 1.38-.22 2.56-.39 3.82s-.34 2.47-.54 3.69c-.41 2.46-1 4.88-1.54 7.3a79.762 79.762 0 0 1-4.89 14.2l-.4.86-.19.43-.26.51a18.806 18.806 0 0 1-1.12 1.92 27.6 27.6 0 0 1-2.59 3.17 52.933 52.933 0 0 1-5.64 5.14 89.809 89.809 0 0 1-12.32 8.13l-2.3-3.45c1.77-1.5 3.58-3.06 5.31-4.63s3.45-3.17 5.06-4.81a59.265 59.265 0 0 0 4.51-5 24.744 24.744 0 0 0 1.75-2.55c.13-.21.24-.41.34-.61a5 5 0 0 0 .27-.59l.13-.3.15-.4.31-.79c.82-2.1 1.51-4.27 2.17-6.46s1.2-4.41 1.69-6.66.9-4.51 1.28-6.78.68-4.61.91-6.73z" transform="translate(-248.08 -125.011)"/>
            <path id="Path_14" data-name="Path 14" class="cls-8" d="M286.64 174.16c-3.38.85-5.74 14.74-5.74 14.74l9.3 6.32s8.91-14 6.32-17.71c-2.7-3.87-4.96-4.61-9.88-3.35z" transform="translate(-248.08 -125.011)"/>
            <path id="Path_15" data-name="Path 15" class="cls-9" d="m286.94 177.26-2.59 13.99 5.22 3.55z" transform="translate(-248.08 -125.011)"/>
            <path id="Path_16" data-name="Path 16" class="cls-7" d="m258.32 229.75-6.32 2.46 7.13 4.3s4.55-2.63 4.44-6l-.71-.4a5.31 5.31 0 0 0-4.54-.36z" transform="translate(-248.08 -125.011)"/>
            <path id="Path_17" data-name="Path 17" class="cls-7" d="m248.08 236.87 5.37 4.46 5.69-4.82-7.13-4.3z" transform="translate(-248.08 -125.011)"/>
            <path id="Path_18" data-name="Path 18" class="cls-7" d="M312.93 407.88h-8.18l-3.36-18.96h8.19z" transform="translate(-248.08 -125.011)"/>
            <path id="Path_19" data-name="Path 19" class="cls-6" d="M304.11 406.93h9.2a.64.64 0 0 1 .65.56l1.05 7.28a1.31 1.31 0 0 1-1.31 1.45c-3.21-.05-4.75-.24-8.8-.24-2.49 0-9.63.26-13.07.26s-3.62-3.4-2.19-3.71c6.42-1.38 10.94-3.28 13.1-5.1a2.18 2.18 0 0 1 1.37-.5z" transform="translate(-248.08 -125.011)"/>
            <g id="Group_1" data-name="Group 1" class="cls-10" transform="translate(53.31 263.909)">
                <path id="Path_20" data-name="Path 20" d="m301.39 388.92 1.73 9.78h8.19l-1.72-9.78z" transform="translate(-301.39 -388.92)"/>
            </g>
            <path id="Path_21" data-name="Path 21" class="cls-8" d="M286.64 174.16s-3.9 1.37 3.91 49.41h33.25c-.56-13.53-.68-21.89 5.79-49.66a95.371 95.371 0 0 0-14-1.85 105.437 105.437 0 0 0-15.09 0c-6.5.59-13.86 2.1-13.86 2.1z" transform="translate(-248.08 -125.011)"/>
            <path id="Path_22" data-name="Path 22" class="cls-7" d="M314.08 155.06c-.95 4.85-1.9 13.76 1.49 17 0 0-1.32 4.93-10.35 4.93-9.93 0-4.74-4.93-4.74-4.93 5.41-1.3 5.27-5.32 4.33-9.09z" transform="translate(-248.08 -125.011)"/>
            <path id="Path_23" data-name="Path 23" class="cls-7" d="M315.57 172.06a105.577 105.577 0 0 0-15.1 0l-1 .1c-1.21 2.28-1.51 5.79 1.37 11 0 0 13.25-5.34 16.7-10.92a18.018 18.018 0 0 0-1.97-.18z" transform="translate(-248.08 -125.011)"/>
            <path id="Path_24" data-name="Path 24" class="cls-9" d="m310.3 158.29-5.49 4.71a14.921 14.921 0 0 1 .47 2.68c2.07-.3 4.91-2.57 5.13-4.74a7.17 7.17 0 0 0-.11-2.65z" transform="translate(-248.08 -125.011)"/>
            <path id="Path_25" data-name="Path 25" class="cls-7" d="M319.32 146.64c-1.85 7.91-2.47 11.3-7.21 14.71-7.12 5.14-16.43 1.14-17-7.17-.5-7.47 2.62-19.16 11-21a11.09 11.09 0 0 1 13.21 13.46z" transform="translate(-248.08 -125.011)"/>
            <path id="Path_26" data-name="Path 26" class="cls-6" d="M316.05 139.5c-2.87 2.2-1.62 10.17 1.94 12.61 5.56-1.33 6.61-19.17-1.94-12.61z" transform="translate(-248.08 -125.011)"/>
            <path id="Path_27" data-name="Path 27" class="cls-6" d="M317 132c-.17-3.78 1.33-10.72 10.61-4.5s-1.61 10-6.05 9.11S317 132 317 132z" transform="translate(-248.08 -125.011)"/>
            <path id="Path_28" data-name="Path 28" class="cls-6" d="M306 131.61c-3.22.56-7.29 5.33-8.15 7.28 4.82-.89 18.1 3.22 18.1 3.22s5.94-.67 2.61-5.25-12.56-5.25-12.56-5.25z" transform="translate(-248.08 -125.011)"/>
            <path id="Path_29" data-name="Path 29" class="cls-8" d="M290.55 223.57s-6.46 63.07-5.92 88c.56 26 16.71 85.19 16.71 85.19h11.07S304 339.09 305 313.59c1.07-27.81 9.9-90 9.9-90z" transform="translate(-248.08 -125.011)"/>
            <path id="Path_30" data-name="Path 30" class="cls-11" d="M290.55 223.57s-6.46 63.07-5.92 88c.56 26 16.71 85.19 16.71 85.19h11.07S304 339.09 305 313.59c1.07-27.81 9.9-90 9.9-90z" transform="translate(-248.08 -125.011)"/>
            <path id="Path_31" data-name="Path 31" class="cls-6" d="M313.37 397.2h-12.99l-.95-4.14 14.54-.51z" transform="translate(-248.08 -125.011)"/>
            <path id="Path_32" data-name="Path 32" class="cls-9" d="M304.89 239.26c-8.17 16.43-1.64 46.4 1.25 57.55 1.48-16.74 4-37.22 5.92-52.25-1.23-8.5-3.4-12.87-7.17-5.3z" transform="translate(-248.08 -125.011)"/>
            <path id="Path_33" data-name="Path 33" class="cls-7" d="m384.28 334.65-2.76 7.71-18.87-3.56 2.76-7.71z" transform="translate(-248.08 -125.011)"/>
            <path id="Path_34" data-name="Path 34" class="cls-6" d="m379.29 342.61.64-9.18a.76.76 0 0 1 .61-.68l7.4-1.48a1.13 1.13 0 0 1 1.37 1.22c-.28 3.2-.57 4.75-.86 8.79-.17 2.48-.41 9.6-.65 13s-3.67 3.82-3.88 2.41c-.94-6.32-2.54-10.72-4.22-12.77a1.91 1.91 0 0 1-.41-1.31z" transform="translate(-248.08 -125.011)"/>
            <g id="Group_2" data-name="Group 2" class="cls-10" transform="translate(114.58 206.079)">
                <path id="Path_35" data-name="Path 35" d="m362.66 338.8 9.72 1.83 2.76-7.71-9.72-1.83z" transform="translate(-362.66 -331.09)"/>
            </g>
            <path id="Path_36" data-name="Path 36" class="cls-8" d="M299.75 223.57s9.07 65.08 15.23 89.57c6.41 25.47 54.16 27.64 54.16 27.64l4.86-9.94s-27.88-7.42-39.91-24.18c-5.21-27.44-10-83.09-10-83.09z" transform="translate(-248.08 -125.011)"/>
            <path id="Path_37" data-name="Path 37" class="cls-11" d="M299.75 223.57s9.07 65.08 15.23 89.57c6.41 25.47 54.16 27.64 54.16 27.64l4.86-9.94s-27.88-7.42-39.91-24.18c-5.21-27.44-10-83.09-10-83.09z" transform="translate(-248.08 -125.011)"/>
            <path id="Path_38" data-name="Path 38" class="cls-6" d="m374.56 329.91-4.26 12.27-4.41.05 4.28-13.85z" transform="translate(-248.08 -125.011)"/>
            <path id="Path_39" data-name="Path 39" class="cls-8" d="M380.52 345.59a3.39 3.39 0 0 1-.65 2 1.2 1.2 0 0 1-1 .4.52.52 0 0 1-.49-.29c-.48-1 1.42-4.33 1.64-4.71a.23.23 0 0 1 .21-.11.16.16 0 0 1 .15.14 13.691 13.691 0 0 1 .14 2.57zm-1.81 1.55a.76.76 0 0 0 0 .36.23.23 0 0 0 .21.12.83.83 0 0 0 .64-.26c.48-.53.65-1.87.48-3.67a11.819 11.819 0 0 0-1.33 3.45z" transform="translate(-248.08 -125.011)"/>
            <path id="Path_40" data-name="Path 40" class="cls-8" d="M380.4 343.07a.19.19 0 0 1 0 .08c-.51 1-2.43 3-3.35 2.94-.22 0-.48-.16-.5-.7a1.6 1.6 0 0 1 .41-1.09 6.23 6.23 0 0 1 3.27-1.41.16.16 0 0 1 .16.07.11.11 0 0 1 .01.11zm-3.47 2.15a.371.371 0 0 0 0 .11c0 .35.16.37.2.37.56.06 2.05-1.33 2.72-2.36a5.21 5.21 0 0 0-2.61 1.19 1.1 1.1 0 0 0-.31.69z" transform="translate(-248.08 -125.011)"/>
            <path id="Path_41" data-name="Path 41" class="cls-6" d="M305.41 146.59c-.11.65-.55 1.12-1 1s-.68-.66-.57-1.31.54-1.12 1-1.05.68.71.57 1.36z" transform="translate(-248.08 -125.011)"/>
            <path id="Path_42" data-name="Path 42" class="cls-6" d="M298.05 145.34c-.11.65-.54 1.12-1 1s-.68-.65-.57-1.31.55-1.12 1-1 .68.66.57 1.31z" transform="translate(-248.08 -125.011)"/>
            <path id="Path_43" data-name="Path 43" class="cls-6" d="m297.66 144.1-1.48-.72s.59 1.36 1.48.72z" transform="translate(-248.08 -125.011)"/>
            <path id="Path_44" data-name="Path 44" d="M300.92 146.9a18 18 0 0 1-3 3.76 2.86 2.86 0 0 0 2.24.83z" transform="translate(-248.08 -125.011)" style="fill:#ed893e"/>
            <path id="Path_45" data-name="Path 45" class="cls-6" d="M303.25 154.64a5.559 5.559 0 0 1-1-.09.19.19 0 0 1-.16-.22.2.2 0 0 1 .22-.16 5.25 5.25 0 0 0 4.55-1.3.19.19 0 0 1 .28 0 .2.2 0 0 1 0 .27 5.46 5.46 0 0 1-3.89 1.5z" transform="translate(-248.08 -125.011)"/>
            <path id="Path_46" data-name="Path 46" class="cls-7" d="M320.24 154.34a6 6 0 0 1-3.61 2.75c-2 .51-3-1.3-2.38-3.18.53-1.69 2.23-4 4.24-3.69a2.68 2.68 0 0 1 1.75 4.12z" transform="translate(-248.08 -125.011)"/>
            <path id="Path_47" data-name="Path 47" class="cls-6" d="M309.41 145.59a.38.38 0 0 1-.36-.27c-.53-1.71-2.72-2.45-2.74-2.45a.389.389 0 1 1 .24-.74 5.172 5.172 0 0 1 3.24 3 .39.39 0 0 1-.26.49z" transform="translate(-248.08 -125.011)"/>
            <path id="Path_48" data-name="Path 48" class="cls-6" d="M297.22 141.56a.38.38 0 0 1-.19-.72 3.86 3.86 0 0 1 3.53-.24.39.39 0 1 1-.35.69 3.12 3.12 0 0 0-2.8.22.34.34 0 0 1-.19.05z" transform="translate(-248.08 -125.011)"/>
            <path id="Path_49" data-name="Path 49" class="cls-7" d="M331.41 180.58a107.662 107.662 0 0 1 12.23 7.76c1.94 1.43 3.88 2.89 5.72 4.51a57.791 57.791 0 0 1 5.36 5.16l.64.7c.1.12.19.21.4.47a6.77 6.77 0 0 1 .48.65 11.351 11.351 0 0 1 1.15 2.33 22.005 22.005 0 0 1 1 4.05 51.535 51.535 0 0 1 .49 7.44 100.153 100.153 0 0 1-1.13 14.3l-4.14-.25c-.13-2.27-.26-4.6-.44-6.88s-.36-4.57-.65-6.8a56.823 56.823 0 0 0-1.09-6.46 15.729 15.729 0 0 0-.88-2.69 3.289 3.289 0 0 0-.45-.77 2.1 2.1 0 0 1-.24-.22l-.59-.56a85.291 85.291 0 0 0-10.38-8.22c-1.85-1.29-3.77-2.49-5.68-3.7s-3.9-2.39-5.76-3.47z" transform="translate(-248.08 -125.011)"/>
            <path id="Path_50" data-name="Path 50" class="cls-8" d="M328.79 173.73c3.46.34 11.21 7.63 11.21 7.63l-7.19 14.17s-9.23-5-10-9.5c-.81-4.65 2.02-12.69 5.98-12.3z" transform="translate(-248.08 -125.011)"/>
            <path id="Path_51" data-name="Path 51" class="cls-8" d="M301 408.36a3.07 3.07 0 0 1-2-.5 1.09 1.09 0 0 1-.35-.95.62.62 0 0 1 .33-.51c1-.55 4.27 1.11 4.64 1.31a.192.192 0 0 1-.06.36 13.69 13.69 0 0 1-2.56.29zm-1.46-1.69a.74.74 0 0 0-.36.07.24.24 0 0 0-.13.21.69.69 0 0 0 .22.62c.5.45 1.85.52 3.66.22a10.5 10.5 0 0 0-3.35-1.12z" transform="translate(-248.08 -125.011)"/>
            <path id="Path_52" data-name="Path 52" class="cls-8" d="M303.58 408.07h-.08c-1-.45-2.91-2.21-2.76-3.14 0-.22.19-.49.73-.55a1.4 1.4 0 0 1 1.07.34c1 .86 1.22 3.06 1.23 3.15a.21.21 0 0 1-.08.18.2.2 0 0 1-.11.02zm-1.95-3.32h-.12c-.35 0-.38.18-.39.22-.09.56 1.22 1.95 2.22 2.55a4.54 4.54 0 0 0-1-2.52 1 1 0 0 0-.71-.25z" transform="translate(-248.08 -125.011)"/>
            <path id="Path_53" data-name="Path 53" class="cls-6" d="m305 145.35-1.49-.72s.62 1.37 1.49.72z" transform="translate(-248.08 -125.011)"/>
            <path id="Path_54" data-name="Path 54" d="m324.3 221.62.85 3c.11.24-.16.47-.54.47h-34.23c-.3 0-.54-.15-.56-.33l-.3-3c0-.21.24-.38.56-.38h33.68a.61.61 0 0 1 .54.24z" transform="translate(-248.08 -125.011)" style="fill:#fafafa"/>
            <path id="Path_55" data-name="Path 55" class="cls-8" d="M319.78 225.38h.9c.18 0 .31-.09.3-.2l-.42-3.87c0-.11-.17-.21-.35-.21h-.9c-.18 0-.32.1-.31.21l.43 3.87c.01.11.17.2.35.2z" transform="translate(-248.08 -125.011)"/>
            <g id="Group_3" data-name="Group 3" transform="translate(70.919 96.089)" style="opacity:.3">
                <path id="Path_56" data-name="Path 56" d="M319.78 225.38h.9c.18 0 .31-.09.3-.2l-.42-3.87c0-.11-.17-.21-.35-.21h-.9c-.18 0-.32.1-.31.21l.43 3.87c.01.11.17.2.35.2z" transform="translate(-318.999 -221.1)"/>
            </g>
            <path id="Path_57" data-name="Path 57" class="cls-8" d="M292.92 225.38h.9c.18 0 .32-.09.3-.2l-.42-3.87c0-.11-.17-.21-.35-.21h-.9c-.18 0-.32.1-.3.21l.42 3.87c.01.11.17.2.35.2z" transform="translate(-248.08 -125.011)"/>
            <path id="Path_58" data-name="Path 58" class="cls-11" d="M292.92 225.38h.9c.18 0 .32-.09.3-.2l-.42-3.87c0-.11-.17-.21-.35-.21h-.9c-.18 0-.32.1-.3.21l.42 3.87c.01.11.17.2.35.2z" transform="translate(-248.08 -125.011)"/>
            <path id="Path_59" data-name="Path 59" class="cls-8" d="M306.35 225.38h.9c.18 0 .32-.09.3-.2l-.42-3.87c0-.11-.17-.21-.35-.21h-.9c-.18 0-.32.1-.31.21l.43 3.87c0 .11.17.2.35.2z" transform="translate(-248.08 -125.011)"/>
            <path id="Path_60" data-name="Path 60" class="cls-11" d="M306.35 225.38h.9c.18 0 .32-.09.3-.2l-.42-3.87c0-.11-.17-.21-.35-.21h-.9c-.18 0-.32.1-.31.21l.43 3.87c0 .11.17.2.35.2z" transform="translate(-248.08 -125.011)"/>
            <path id="Path_61" data-name="Path 61" class="cls-7" d="m353.31 227.2-2.63 8.44 7.67-3.23s.55-5.22-2.26-7.14z" transform="translate(-248.08 -125.011)"/>
            <path id="Path_62" data-name="Path 62" class="cls-7" d="m353.11 242.08 6.28-3.05-1.04-6.62-7.67 3.23z" transform="translate(-248.08 -125.011)"/>
        </g>
        <g id="freepik--character-1--inject-92" transform="translate(151.054 195.047)">
            <path id="Path_63" data-name="Path 63" class="cls-15" d="m198.85 407.55 8.3.08 2.26-19.2-8.3-.07z" transform="translate(-127.496 -117.607)"/>
            <path id="Path_64" data-name="Path 64" class="cls-6" d="m207.16 406.67-9.06-.08a.78.78 0 0 0-.75.56l-2.19 7.35a1.13 1.13 0 0 0 1.09 1.49c3.27 0 8-.18 12.12-.14 4.8 0 5.79.34 11.42.39 3.41 0 4.61-3.41 3.21-3.73-6.38-1.48-8.53-1.67-13.88-5.18a3.63 3.63 0 0 0-1.96-.66z" transform="translate(-127.496 -117.607)"/>
            <path id="Path_65" data-name="Path 65" class="cls-9" d="m209.41 388.44-1.17 9.89-8.3-.07 1.17-9.9z" transform="translate(-127.496 -117.607)"/>
            <path id="Path_66" data-name="Path 66" class="cls-8" d="M210.59 408.15a13.649 13.649 0 0 1-2.66-.32.2.2 0 0 1-.15-.17.18.18 0 0 1 .11-.2c.39-.2 3.88-1.87 4.83-1.27a.59.59 0 0 1 .28.53 1.15 1.15 0 0 1-.44.94 3.22 3.22 0 0 1-1.97.49zm-2-.59c1.8.31 3.16.24 3.71-.2a.77.77 0 0 0 .3-.64.21.21 0 0 0-.1-.2c-.5-.32-2.5.39-3.9 1.04z" transform="translate(-127.496 -117.607)"/>
            <path id="Path_67" data-name="Path 67" class="cls-8" d="M208 407.83a.19.19 0 0 1-.12 0 .23.23 0 0 1-.07-.19c0-.15.65-3.72 2.63-3.5.52.06.67.32.7.53.13.94-2 2.73-3.06 3.18a.11.11 0 0 1-.08-.02zm2.27-3.34c-1.19 0-1.78 1.94-2 2.79 1.1-.62 2.55-2 2.47-2.59 0 0 0-.16-.35-.2z" transform="translate(-127.496 -117.607)"/>
            <path id="Path_68" data-name="Path 68" class="cls-15" d="M224.29 177.7c.71 5.2 1.49 10.59 2.34 15.84s1.78 10.52 3 15.59c.13.64.29 1.26.45 1.88l.42 1.68a6.69 6.69 0 0 0 1 2 34.1 34.1 0 0 0 4.62 5.24 154.945 154.945 0 0 0 12.1 10l-3 5.62a70.076 70.076 0 0 1-7.86-3.46 68.43 68.43 0 0 1-7.5-4.42 37.17 37.17 0 0 1-7.13-6.17 17.08 17.08 0 0 1-3.13-5c-.26-.63-.31-.84-.44-1.22l-.35-1c-.24-.69-.47-1.38-.67-2.06a159.054 159.054 0 0 1-4.14-16.44c-1.06-5.52-1.91-11-2.5-16.63z" transform="translate(-127.496 -117.607)"/>
            <path id="Path_69" data-name="Path 69" class="cls-6" d="M208.67 180.09c-.13 9.48 3.57 23 3.57 23l13.17-4 5.42-1.64a74.481 74.481 0 0 0-3.21-18.57c-3.21-10.33-12.14-13.39-17.29-6.28-1.16 1.64-1.62 4.34-1.66 7.49z" transform="translate(-127.496 -117.607)"/>
            <path id="Path_70" data-name="Path 70" class="cls-9" d="M208.67 180.09c-.13 9.48 3.57 23 3.57 23l13.17-4a71.792 71.792 0 0 0-2.33-10c-2.66-8.59-9.3-12.15-14.41-9z" transform="translate(-127.496 -117.607)"/>
            <path id="Path_71" data-name="Path 71" class="cls-15" d="m247.74 229.94 5.86 2.81-2.6 8.17s-5.61-2.47-7.46-7.32z" transform="translate(-127.496 -117.607)"/>
            <path id="Path_72" data-name="Path 72" class="cls-15" d="m259.47 237.15-3.94 6.71-4.56-2.94 2.63-8.17z" transform="translate(-127.496 -117.607)"/>
            <path id="Path_73" data-name="Path 73" class="cls-8" d="M213.87 240.71s9.44 46.08 11.06 71.62c1.68 26.57-12.43 81.18-12.43 81.18l-15-.32s5.06-57.3 1.86-83.53c-3.48-28.59-10.92-71.17-10.92-71.17z" transform="translate(-127.496 -117.607)"/>
            <path id="Path_74" data-name="Path 74" class="cls-9" d="M195.21 250c-1.92-1.82-3.23.27-4.1 4.14 1.65 10 3.81 23.44 5.7 36.52 6.03-11.86 4.61-34.77-1.6-40.66z" transform="translate(-127.496 -117.607)"/>
            <path id="Path_75" data-name="Path 75" class="cls-8" d="m195.67 393.86 17.62.36 1.3-5.86-18.7-.04z" transform="translate(-127.496 -117.607)"/>
            <path id="Path_76" data-name="Path 76" class="cls-16" d="m195.67 393.86 17.62.36 1.3-5.86-18.7-.04z" transform="translate(-127.496 -117.607)"/>
            <path id="Path_77" data-name="Path 77" class="cls-15" d="m134.36 383.21 6.84 4.69 12.6-14.65-6.84-4.7z" transform="translate(-127.496 -117.607)"/>
            <path id="Path_78" data-name="Path 78" class="cls-6" d="m142.27 387.05-7.27-5.39a.78.78 0 0 0-.93 0l-6.1 4.67a1.13 1.13 0 0 0 0 1.84c2.67 1.9 6.59 4.56 9.89 7 3.87 2.86 3.83 2.8 8.36 6.15 2.74 2 5.73 0 4.78-1.13-4.3-4.95-5.26-5.49-7.53-11.47a3.57 3.57 0 0 0-1.2-1.67z" transform="translate(-127.496 -117.607)"/>
            <path id="Path_79" data-name="Path 79" class="cls-9" d="m153.8 373.25-6.5 7.56-6.84-4.7 6.5-7.56z" transform="translate(-127.496 -117.607)"/>
            <path id="Path_80" data-name="Path 80" class="cls-8" d="M144.17 390.26a13 13 0 0 1-2-1.82.2.2 0 0 1 0-.23.21.21 0 0 1 .21-.1c.43.08 4.23.77 4.65 1.81a.6.6 0 0 1-.08.6 1.19 1.19 0 0 1-.91.51 3.25 3.25 0 0 1-1.87-.77zm-1.26-1.65c1.26 1.31 2.41 2.06 3.11 2a.76.76 0 0 0 .62-.34.22.22 0 0 0 0-.22c-.19-.54-2.2-1.12-3.73-1.44z" transform="translate(-127.496 -117.607)"/>
            <path id="Path_81" data-name="Path 81" class="cls-8" d="M142.24 388.47a.28.28 0 0 1-.08-.11.19.19 0 0 1 .05-.19c.11-.11 2.72-2.63 4.19-1.29.38.35.35.65.25.84-.44.84-3.22 1-4.34.78zm3.8-1.38c-1-.7-2.59.52-3.25 1.09 1.25.14 3.25-.14 3.51-.64 0 0 .08-.15-.17-.37z" transform="translate(-127.496 -117.607)"/>
            <path id="Path_82" data-name="Path 82" class="cls-8" d="M198.44 239.36s-3 44.45-5.8 69.89c-2.95 26.46-39.12 69.94-39.12 69.94l-12.24-8.64s25.26-42 26.67-68.36c1.52-28.76 1.71-65.35 1.71-65.35z" transform="translate(-127.496 -117.607)"/>
            <path id="Path_83" data-name="Path 83" class="cls-8" d="m139.04 370.83 14.01 9.98 3.91-4.12-14.87-11.4z" transform="translate(-127.496 -117.607)"/>
            <path id="Path_84" data-name="Path 84" class="cls-16" d="m139.04 370.83 14.01 9.98 3.91-4.12-14.87-11.4z" transform="translate(-127.496 -117.607)"/>
            <path id="Path_85" data-name="Path 85" class="cls-6" d="M219.64 169.22s7.57 25.82-5.77 71.49l-44.21-3.87c.29-6.82 7.46-39.55 3.71-72.1a114.924 114.924 0 0 1 15-.57 164.3 164.3 0 0 1 18.79 1.64 82.69 82.69 0 0 1 12.48 3.41z" transform="translate(-127.496 -117.607)"/>
            <path id="Path_86" data-name="Path 86" class="cls-9" d="m182.19 181.41-7.74 4.83c0 5.69-.32 11.2-.71 16.36 4.84-4.26 7.92-12.47 8.45-21.19z" transform="translate(-127.496 -117.607)"/>
            <path id="Path_87" data-name="Path 87" class="cls-15" d="M192.05 143.17c.66 6.15.87 17.33-3.71 21 0 0 1.11 6.31 12.35 7.26 9 .76 6.44-5.62 6.44-5.62-6.6-2.2-6-7.19-4.4-11.78z" transform="translate(-127.496 -117.607)"/>
            <path id="Path_88" data-name="Path 88" class="cls-5" d="M194.12 178.43a.27.27 0 0 1-.16-.06c-.06-.05-6.84-5.74-8.31-12.71a.24.24 0 0 1 .19-.29.25.25 0 0 1 .3.19c1.27 6 6.65 11.11 7.89 12.21a8.23 8.23 0 0 1 7.23-4.93.26.26 0 0 1 .25.26.28.28 0 0 1-.26.24 7.6 7.6 0 0 0-6.91 4.94.24.24 0 0 1-.17.14z" transform="translate(-127.496 -117.607)"/>
            <path id="Path_89" data-name="Path 89" class="cls-5" d="M208.46 179.08h-.06a.27.27 0 0 1-.19-.2 8 8 0 0 0-4.69-5.46.24.24 0 0 1-.13-.33.25.25 0 0 1 .32-.13 8.51 8.51 0 0 1 4.86 5.3c4.83-6.87 1.21-10.58 1.05-10.73a.25.25 0 0 1 0-.36.24.24 0 0 1 .35 0s4.25 4.31-1.31 11.81a.26.26 0 0 1-.2.1z" transform="translate(-127.496 -117.607)"/>
            <path id="Path_90" data-name="Path 90" class="cls-9" d="m196.4 147.6 6.32 6.42a19 19 0 0 0-.87 3.29c-2.54-.6-5.83-3.74-5.87-6.46a9.16 9.16 0 0 1 .42-3.25z" transform="translate(-127.496 -117.607)"/>
            <path id="Path_91" data-name="Path 91" class="cls-6" d="M212.8 127.08c3.93 2 5.21 13-.21 15s-7.22-18.77.21-15z" transform="translate(-127.496 -117.607)"/>
            <path id="Path_92" data-name="Path 92" class="cls-15" d="M192.13 134c-.21 8.24-.76 13 3 17.61 5.67 6.87 16.1 4 18.77-4 2.4-7.2 2.35-19.46-5.38-23.42a11.23 11.23 0 0 0-16.39 9.81z" transform="translate(-127.496 -117.607)"/>
            <path id="Path_93" data-name="Path 93" class="cls-6" d="M204.35 137.38c-.06.67.25 1.24.68 1.28s.84-.47.9-1.14-.25-1.24-.69-1.28-.83.47-.89 1.14z" transform="translate(-127.496 -117.607)"/>
            <path id="Path_94" data-name="Path 94" class="cls-6" d="M211.89 138c-.06.67.24 1.24.68 1.28s.84-.47.89-1.14-.24-1.24-.68-1.28-.84.51-.89 1.14z" transform="translate(-127.496 -117.607)"/>
            <path id="Path_95" data-name="Path 95" d="M209.46 138.16a23.86 23.86 0 0 0 2.69 6 3.86 3.86 0 0 1-3.24.32z" transform="translate(-127.496 -117.607)" style="fill:#ff5652"/>
            <path id="Path_96" data-name="Path 96" class="cls-6" d="M206.81 146.13a5.61 5.61 0 0 1-4.44-2.64.2.2 0 0 1 .08-.27.19.19 0 0 1 .26.08 5.33 5.33 0 0 0 4.13 2.44.2.2 0 0 1 .18.21.19.19 0 0 1-.21.18z" transform="translate(-127.496 -117.607)"/>
            <path id="Path_97" data-name="Path 97" class="cls-6" d="M202.3 134.75a.37.37 0 0 1-.24-.1.39.39 0 0 1 0-.55 3.9 3.9 0 0 1 3.33-1.34.39.39 0 0 1 .33.45.4.4 0 0 1-.45.33 3.11 3.11 0 0 0-2.62 1.08.37.37 0 0 1-.35.13z" transform="translate(-127.496 -117.607)"/>
            <path id="Path_98" data-name="Path 98" class="cls-6" d="M215.42 135.74a.39.39 0 0 1-.34-.25 3.12 3.12 0 0 0-2.05-2 .393.393 0 0 1 .16-.77 3.86 3.86 0 0 1 2.62 2.45.39.39 0 0 1-.22.51.33.33 0 0 1-.17.06z" transform="translate(-127.496 -117.607)"/>
            <path id="Path_99" data-name="Path 99" class="cls-15" d="M181.51 178.38c-1.71 2.23-3.56 4.63-5.28 7s-3.48 4.77-5.15 7.19a163.365 163.365 0 0 0-9.28 14.72l-1 1.83a7 7 0 0 0-.49 1.15 10.18 10.18 0 0 0-.48 2.87 22.92 22.92 0 0 0 1.26 7.21 70.14 70.14 0 0 0 7.48 15.15l-4.78 4.2a56.621 56.621 0 0 1-6.51-7.21 49.538 49.538 0 0 1-5.26-8.41 30.48 30.48 0 0 1-3.09-10.39 20.31 20.31 0 0 1 .33-6.17 18.23 18.23 0 0 1 1-3.15l1-2.27a93.782 93.782 0 0 1 4.35-8.55q2.34-4.125 4.88-8.08c1.69-2.64 3.46-5.2 5.3-7.72s3.68-5 5.77-7.47z" transform="translate(-127.496 -117.607)"/>
            <path id="Path_100" data-name="Path 100" class="cls-6" d="M173.37 164.74c-7.84 1.17-19 25.18-19 25.18l17 9.76a56.74 56.74 0 0 0 11.78-16.52c4.31-9.84-1.37-19.67-9.78-18.42z" transform="translate(-127.496 -117.607)"/>
            <path id="Path_101" data-name="Path 101" class="cls-15" d="m166.32 234 8.9.65-6.08 8.62s-6.24-2-6.61-5.18z" transform="translate(-127.496 -117.607)"/>
            <path id="Path_102" data-name="Path 102" class="cls-15" d="m180.44 240.27-5.37 6.9-5.93-3.92 6.08-8.62z" transform="translate(-127.496 -117.607)"/>
            <path id="Path_103" data-name="Path 103" class="cls-6" d="M187.5 124.38c-6.08 6.54 2.24 20.71 5.71 20.7s5.24-12.83 3.5-16.17c1.81 1 17.95 1.34 19.54.27 2.92-2 5.39-8.3-3.57-11.35 0 2.25-2.59 3.13-10 .8-9.11-2.9-19.93.79-15.18 5.75z" transform="translate(-127.496 -117.607)"/>
            <path id="Path_104" data-name="Path 104" class="cls-6" d="M188.34 124.58a3.93 3.93 0 0 0-5.21 1.09 24.19 24.19 0 0 1 5.21-1.09z" transform="translate(-127.496 -117.607)"/>
            <path id="Path_105" data-name="Path 105" class="cls-15" d="M187.64 142.71a7.82 7.82 0 0 0 4.56 3.86c2.62.83 4-1.5 3.36-4-.59-2.27-2.67-5.42-5.33-5.15s-3.73 3.02-2.59 5.29z" transform="translate(-127.496 -117.607)"/>
        </g>
        <g id="freepik--Hearts--inject-92" transform="translate(261.653 78.689)">
            <path id="Path_106" data-name="Path 106" class="cls-8" d="M261.13 87.09a10.61 10.61 0 0 0-14.61-3.4 10.6 10.6 0 0 0-18 11.2l11.2 18 18-11.2a10.61 10.61 0 0 0 3.41-14.6z" transform="translate(-226.919 -78.689)"/>
            <path id="Path_107" data-name="Path 107" class="cls-8" d="M278.81 111.68a9.1 9.1 0 0 0-12.7 2.15 9.12 9.12 0 0 0-10.56 14.86l14.86 10.55L281 124.39a9.1 9.1 0 0 0-2.19-12.71z" transform="translate(-226.919 -78.689)"/>
            <path id="Path_108" data-name="Path 108" d="M278.81 111.68a9.1 9.1 0 0 0-12.7 2.15 9.12 9.12 0 0 0-10.56 14.86l14.86 10.55L281 124.39a9.1 9.1 0 0 0-2.19-12.71z" transform="translate(-226.919 -78.689)" style="opacity:.5;fill:#fff"/>
            <path id="Path_109" data-name="Path 109" class="cls-8" d="M254.91 148.61a6.39 6.39 0 0 0-8-4.15 6.379 6.379 0 1 0-12.161 3.86l3.851 12.16 12.16-3.86a6.38 6.38 0 0 0 4.15-8.01z" transform="translate(-226.919 -78.689)"/>
        </g>
    </g>
</svg>
